<svg xmlns="http://www.w3.org/2000/svg"  viewBox="0 0 48 48" width="48px" height="48px" baseProfile="basic"><linearGradient id="Xj4lnxwVPpmS5e_ci11W_a" x1="24" x2="24" y1="55.049" y2="35.407" gradientUnits="userSpaceOnUse"><stop offset="0" stop-color="#262626" stop-opacity="0"/><stop offset="1" stop-color="#262626" stop-opacity=".8"/></linearGradient><path fill="url(#Xj4lnxwVPpmS5e_ci11W_a)" d="M28,42h-1v-4h-6v4h-1c-2.209,0-4,1.791-4,4v0h16v0C32,43.791,30.209,42,28,42z"/><linearGradient id="Xj4lnxwVPpmS5e_ci11W_b" x1="5.88" x2="32.016" y1="78.431" y2="6.621" gradientUnits="userSpaceOnUse"><stop offset="0" stop-color="#262626" stop-opacity="0"/><stop offset="1" stop-color="#262626" stop-opacity=".8"/></linearGradient><path fill="url(#Xj4lnxwVPpmS5e_ci11W_b)" d="M33,16v18H15V16h0c-2.209,0-4,1.791-4,4v18h26V20C37,17.791,35.209,16,33,16L33,16z"/><linearGradient id="Xj4lnxwVPpmS5e_ci11W_c" x1="6.988" x2="41.243" y1="44.966" y2="-14.367" gradientUnits="userSpaceOnUse"><stop offset="0" stop-color="#262626" stop-opacity="0"/><stop offset="1" stop-color="#262626" stop-opacity=".8"/></linearGradient><path fill="url(#Xj4lnxwVPpmS5e_ci11W_c)" d="M27,30H15V7c0-3.314,2.686-6,6-6h12v23C33,27.314,30.314,30,27,30z"/><linearGradient id="Xj4lnxwVPpmS5e_ci11W_d" x1="20.51" x2="26.536" y1="28.045" y2="17.608" gradientUnits="userSpaceOnUse"><stop offset="0" stop-color="#262626" stop-opacity="0"/><stop offset="1" stop-color="#262626" stop-opacity=".8"/></linearGradient><circle cx="24" cy="22" r="3" fill="url(#Xj4lnxwVPpmS5e_ci11W_d)"/></svg>