<svg xmlns="http://www.w3.org/2000/svg"  viewBox="0 0 48 48" width="48px" height="48px" baseProfile="basic"><linearGradient id="xpeM4NZBp0Fei8KT9KZaPa" x1="-1.154" x2="62.754" y1="38.523" y2="1.625" gradientUnits="userSpaceOnUse"><stop offset="0" stop-color="#262626" stop-opacity="0"/><stop offset="1" stop-color="#262626" stop-opacity=".8"/></linearGradient><path fill="url(#xpeM4NZBp0Fei8KT9KZaPa)" d="M24,4C12.954,4,4,12.954,4,24c0,11.046,8.954,20,20,20s20-8.954,20-20	C44,12.954,35.046,4,24,4z"/><linearGradient id="xpeM4NZBp0Fei8KT9KZaPb" x1="2.891" x2="32.774" y1="41.109" y2="11.226" gradientUnits="userSpaceOnUse"><stop offset="0" stop-color="#262626" stop-opacity="0"/><stop offset="1" stop-color="#262626" stop-opacity=".8"/></linearGradient><path fill="url(#xpeM4NZBp0Fei8KT9KZaPb)" d="M29,31H14c-1.657,0-3-1.343-3-3V17h15c1.657,0,3,1.343,3,3V31z"/><linearGradient id="xpeM4NZBp0Fei8KT9KZaPc" x1="26.39" x2="43.175" y1="33.61" y2="16.825" gradientUnits="userSpaceOnUse"><stop offset="0" stop-color="#262626" stop-opacity="0"/><stop offset="1" stop-color="#262626" stop-opacity=".8"/></linearGradient><polygon fill="url(#xpeM4NZBp0Fei8KT9KZaPc)" points="37,31 31,27 31,21 37,17"/></svg>